<svg width="25" height="25" viewBox="0 0 25 25" fill="none" xmlns="http://www.w3.org/2000/svg">
<path d="M5.625 22.5C4.75694 22.5 4.0191 22.1962 3.41146 21.5885C2.80382 20.9809 2.5 20.2431 2.5 19.375C2.5 18.6979 2.70833 18.0903 3.125 17.5521C3.54167 17.0139 4.0625 16.6233 4.6875 16.3802V8.56771C4.0625 8.32465 3.54167 7.93837 3.125 7.40885C2.70833 6.87934 2.5 6.28472 2.5 5.625C2.5 4.73958 2.80382 3.9974 3.41146 3.39844C4.0191 2.79948 4.75694 2.5 5.625 2.5C6.30208 2.5 6.90538 2.70399 7.4349 3.11198C7.96441 3.51997 8.35069 4.04514 8.59375 4.6875H16.4323C16.658 4.02778 17.0399 3.49826 17.5781 3.09896C18.1163 2.69965 18.7153 2.5 19.375 2.5C20.2604 2.5 21.0026 2.79948 21.6016 3.39844C22.2005 3.9974 22.5 4.73958 22.5 5.625C22.5 6.28472 22.3003 6.88368 21.901 7.42188C21.5017 7.96007 20.9722 8.34201 20.3125 8.56771V16.4062C20.9549 16.6493 21.48 17.0356 21.888 17.5651C22.296 18.0946 22.5 18.6979 22.5 19.375C22.5 20.2431 22.2005 20.9809 21.6016 21.5885C21.0026 22.1962 20.2604 22.5 19.375 22.5C18.7153 22.5 18.1163 22.2917 17.5781 21.875C17.0399 21.4583 16.6493 20.9375 16.4062 20.3125H8.59375C8.35069 20.9375 7.96441 21.4583 7.4349 21.875C6.90538 22.2917 6.30208 22.5 5.625 22.5ZM5.625 6.875C5.97917 6.875 6.27604 6.75521 6.51562 6.51562C6.75521 6.27604 6.875 5.97917 6.875 5.625C6.875 5.27083 6.75521 4.97396 6.51562 4.73437C6.27604 4.49479 5.97917 4.375 5.625 4.375C5.27083 4.375 4.97396 4.49479 4.73438 4.73437C4.49479 4.97396 4.375 5.27083 4.375 5.625C4.375 5.97917 4.49479 6.27604 4.73438 6.51562C4.97396 6.75521 5.27083 6.875 5.625 6.875ZM19.375 6.875C19.7292 6.875 20.026 6.75521 20.2656 6.51562C20.5052 6.27604 20.625 5.97917 20.625 5.625C20.625 5.27083 20.5052 4.97396 20.2656 4.73437C20.026 4.49479 19.7292 4.375 19.375 4.375C19.0208 4.375 18.724 4.49479 18.4844 4.73437C18.2448 4.97396 18.125 5.27083 18.125 5.625C18.125 5.97917 18.2448 6.27604 18.4844 6.51562C18.724 6.75521 19.0208 6.875 19.375 6.875ZM8.59375 18.4375H16.4323C16.5984 17.9509 16.857 17.5297 17.2081 17.174C17.5589 16.8184 17.9688 16.5538 18.4375 16.3802V8.56771C17.9688 8.3941 17.5554 8.13463 17.1974 7.78932C16.8396 7.44401 16.5759 7.03507 16.4062 6.5625H8.59375C8.4276 7.03507 8.16901 7.44401 7.81797 7.78932C7.4671 8.13463 7.04861 8.3941 6.5625 8.56771V16.4062C7.04479 16.5733 7.46215 16.833 7.81458 17.1854C8.16701 17.5378 8.42674 17.9552 8.59375 18.4375ZM19.375 20.625C19.7292 20.625 20.026 20.5052 20.2656 20.2656C20.5052 20.026 20.625 19.7292 20.625 19.375C20.625 19.0208 20.5052 18.724 20.2656 18.4844C20.026 18.2448 19.7292 18.125 19.375 18.125C19.0208 18.125 18.724 18.2448 18.4844 18.4844C18.2448 18.724 18.125 19.0208 18.125 19.375C18.125 19.7292 18.2448 20.026 18.4844 20.2656C18.724 20.5052 19.0208 20.625 19.375 20.625ZM5.625 20.625C5.97917 20.625 6.27604 20.5052 6.51562 20.2656C6.75521 20.026 6.875 19.7292 6.875 19.375C6.875 19.0208 6.75521 18.724 6.51562 18.4844C6.27604 18.2448 5.97917 18.125 5.625 18.125C5.27083 18.125 4.97396 18.2448 4.73438 18.4844C4.49479 18.724 4.375 19.0208 4.375 19.375C4.375 19.7292 4.49479 20.026 4.73438 20.2656C4.97396 20.5052 5.27083 20.625 5.625 20.625Z" fill="#0B2A4A"/>
</svg>
