<svg width="20" height="20" viewBox="0 0 20 20" fill="none" xmlns="http://www.w3.org/2000/svg">
<path d="M11.6667 10.6875C12.6806 9.92361 13.4896 9.06944 14.0938 8.125C14.6979 7.18056 15 6.23611 15 5.29167C15 4.86111 14.9271 4.53819 14.7812 4.32292C14.6354 4.10764 14.4167 4 14.125 4C13.4167 4 12.816 4.52083 12.3229 5.5625C11.8299 6.60417 11.5833 7.86806 11.5833 9.35417C11.5833 9.60417 11.5903 9.84028 11.6042 10.0625C11.6181 10.2847 11.6389 10.4931 11.6667 10.6875ZM3 17V15.5H4.5V17H3ZM6.125 17V15.5H7.625V17H6.125ZM9.25 17V15.5H10.75V17H9.25ZM12.375 17V15.5H13.875V17H12.375ZM15.5 17V15.5H17V17H15.5ZM3.0625 14L2 12.9375L3.4375 11.5L2 10.0625L3.0625 9L4.5 10.4375L5.9375 9L7 10.0625L5.5625 11.5L7 12.9375L5.9375 14L4.5 12.5625L3.0625 14ZM12.8125 14C12.4097 14 12.0486 13.9097 11.7292 13.7292C11.4097 13.5486 11.1319 13.2917 10.8958 12.9583C10.5625 13.1389 10.2188 13.309 9.86458 13.4688C9.51042 13.6285 9.13889 13.7847 8.75 13.9375L8.22917 12.5417C8.59028 12.4167 8.94792 12.2743 9.30208 12.1146C9.65625 11.9549 9.99306 11.7778 10.3125 11.5833C10.2292 11.2639 10.1667 10.9201 10.125 10.5521C10.0833 10.184 10.0625 9.78472 10.0625 9.35417C10.0764 7.3125 10.4549 5.65972 11.1979 4.39583C11.941 3.13194 12.9167 2.5 14.125 2.5C14.875 2.5 15.4583 2.74653 15.875 3.23958C16.2917 3.73264 16.5 4.41667 16.5 5.29167C16.5 6.55556 16.125 7.78125 15.375 8.96875C14.625 10.1562 13.5694 11.2222 12.2083 12.1667C12.3056 12.2778 12.4063 12.3611 12.5104 12.4167C12.6146 12.4722 12.7361 12.5 12.875 12.5C13.2778 12.5 13.7222 12.2708 14.2083 11.8125C14.6944 11.3542 15.1458 10.7431 15.5625 9.97917L16.9167 10.6042C16.7917 10.9236 16.7118 11.2639 16.6771 11.625C16.6424 11.9861 16.6597 12.2708 16.7292 12.4792C16.8819 12.4097 17.0694 12.2778 17.2917 12.0833C17.5139 11.8889 17.7153 11.6736 17.8958 11.4375L19.0833 12.3542C18.6806 12.8681 18.2604 13.2708 17.8229 13.5625C17.3854 13.8542 16.9861 14 16.625 14C16.3194 14 16.0451 13.8993 15.8021 13.6979C15.559 13.4965 15.3819 13.2222 15.2708 12.875C14.8681 13.2778 14.4618 13.566 14.0521 13.7396C13.6424 13.9132 13.2292 14 12.8125 14Z" fill="#717171"/>
</svg>
