<svg width="20" height="20" viewBox="0 0 20 20" fill="none" xmlns="http://www.w3.org/2000/svg">
<path d="M6 11.25C6.34722 11.25 6.64236 11.1285 6.88542 10.8854C7.12847 10.6424 7.25 10.3472 7.25 10C7.25 9.65278 7.12847 9.35764 6.88542 9.11458C6.64236 8.87153 6.34722 8.75 6 8.75C5.65278 8.75 5.35764 8.87153 5.11458 9.11458C4.87153 9.35764 4.75 9.65278 4.75 10C4.75 10.3472 4.87153 10.6424 5.11458 10.8854C5.35764 11.1285 5.65278 11.25 6 11.25ZM10 11.25C10.3472 11.25 10.6424 11.1285 10.8854 10.8854C11.1285 10.6424 11.25 10.3472 11.25 10C11.25 9.65278 11.1285 9.35764 10.8854 9.11458C10.6424 8.87153 10.3472 8.75 10 8.75C9.65278 8.75 9.35764 8.87153 9.11458 9.11458C8.87153 9.35764 8.75 9.65278 8.75 10C8.75 10.3472 8.87153 10.6424 9.11458 10.8854C9.35764 11.1285 9.65278 11.25 10 11.25ZM14 11.25C14.3472 11.25 14.6424 11.1285 14.8854 10.8854C15.1285 10.6424 15.25 10.3472 15.25 10C15.25 9.65278 15.1285 9.35764 14.8854 9.11458C14.6424 8.87153 14.3472 8.75 14 8.75C13.6528 8.75 13.3576 8.87153 13.1146 9.11458C12.8715 9.35764 12.75 9.65278 12.75 10C12.75 10.3472 12.8715 10.6424 13.1146 10.8854C13.3576 11.1285 13.6528 11.25 14 11.25ZM10.0058 18C8.90472 18 7.86806 17.7917 6.89583 17.375C5.92361 16.9583 5.07292 16.3854 4.34375 15.6562C3.61458 14.9271 3.04167 14.0767 2.625 13.105C2.20833 12.1333 2 11.0951 2 9.99042C2 8.88569 2.20833 7.85069 2.625 6.88542C3.04167 5.92014 3.61458 5.07292 4.34375 4.34375C5.07292 3.61458 5.92333 3.04167 6.895 2.625C7.86667 2.20833 8.90486 2 10.0096 2C11.1143 2 12.1493 2.20833 13.1146 2.625C14.0799 3.04167 14.9271 3.61458 15.6562 4.34375C16.3854 5.07292 16.9583 5.92167 17.375 6.89C17.7917 7.85847 18 8.89319 18 9.99417C18 11.0953 17.7917 12.1319 17.375 13.1042C16.9583 14.0764 16.3854 14.9271 15.6562 15.6562C14.9271 16.3854 14.0783 16.9583 13.11 17.375C12.1415 17.7917 11.1068 18 10.0058 18ZM10 16.5C11.8056 16.5 13.3403 15.8681 14.6042 14.6042C15.8681 13.3403 16.5 11.8056 16.5 10C16.5 8.19444 15.8681 6.65972 14.6042 5.39583C13.3403 4.13194 11.8056 3.5 10 3.5C8.19444 3.5 6.65972 4.13194 5.39583 5.39583C4.13194 6.65972 3.5 8.19444 3.5 10C3.5 11.8056 4.13194 13.3403 5.39583 14.6042C6.65972 15.8681 8.19444 16.5 10 16.5Z" fill="black"/>
</svg>
