<svg width="20" height="20" viewBox="0 0 20 20" fill="none" xmlns="http://www.w3.org/2000/svg">
<path d="M7 13.75H8.38271L8.8125 12.4583H11.141L11.5729 13.75H13L10.75 7.41667H9.25L7 13.75ZM9.16667 11.3542L10 8.85417L10.7917 11.3542H9.16667ZM7.5 3V1.5H12.5V3H7.5ZM10 18C9.02778 18 8.11861 17.8159 7.2725 17.4477C6.42639 17.0797 5.68688 16.5791 5.05396 15.946C4.4209 15.3131 3.92035 14.5736 3.55229 13.7275C3.1841 12.8814 3 11.9722 3 11C3 10.0278 3.1841 9.11861 3.55229 8.2725C3.92035 7.42639 4.4209 6.68688 5.05396 6.05396C5.68688 5.4209 6.42639 4.92035 7.2725 4.55229C8.11861 4.1841 9.02472 4 9.99083 4C10.8003 4 11.5771 4.13542 12.3212 4.40625C13.0654 4.67708 13.7569 5.05556 14.3958 5.54167L15.4792 4.47917L16.5208 5.52083L15.4583 6.60417C15.9444 7.22917 16.3229 7.91535 16.5938 8.66271C16.8646 9.41007 17 10.1901 17 11.0029C17 11.9732 16.8159 12.8814 16.4477 13.7275C16.0797 14.5736 15.5791 15.3131 14.946 15.946C14.3131 16.5791 13.5736 17.0797 12.7275 17.4477C11.8814 17.8159 10.9722 18 10 18ZM10 16.5C11.5278 16.5 12.8264 15.9653 13.8958 14.8958C14.9653 13.8264 15.5 12.5278 15.5 11C15.5 9.47222 14.9653 8.17361 13.8958 7.10417C12.8264 6.03472 11.5278 5.5 10 5.5C8.47222 5.5 7.17361 6.03472 6.10417 7.10417C5.03472 8.17361 4.5 9.47222 4.5 11C4.5 12.5278 5.03472 13.8264 6.10417 14.8958C7.17361 15.9653 8.47222 16.5 10 16.5Z" fill="black"/>
</svg>
